# xmcd
#
# Track frame offsets:
#	150
#	19373
#	34398
#	49928
#	67519
#	88639
#	106095
#	123988
#	140864
#	154774
#	175124
#	190425
#	206866
#	224079
#
# Disc length: 3246 seconds
#
# Revision: 1
# Processed by: cddbd v1.5.1PL0 Copyright (c) Steve Scherf et al.
# Submitted via: AudioConverter v4.5 Copyright (c) AC Productions Ltd
#
DISCID=d20cac0e
DTITLE=Tim McGraw - A Place In The Sun
DYEAR=1900
DGENRE=
TTITLE0=The Trouble With Never
TTITLE1=Seventeen
TTITLE2=She'll Have You Back
TTITLE3=Somebody Must Be Prayin' For Me
TTITLE4=My Best Friend
TTITLE5=Se_orita Margarita
TTITLE6=Some Things Never Change
TTITLE7=You Don't Love Me Anymore
TTITLE8=Something Like That
TTITLE9=Please, Remember Me
TTITLE10=Carry On
TTITLE11=My Next Thirty Years
TTITLE12=Eyes Of A Woman
TTITLE13=A Place In The Sun
EXTD=
EXTT0=
EXTT1=
EXTT2=
EXTT3=
EXTT4=
EXTT5=
EXTT6=
EXTT7=
EXTT8=
EXTT9=
EXTT10=
EXTT11=
EXTT12=
EXTT13=
PLAYORDER=
